<?xml version="1.0" encoding="utf-8"?>
<!-- Generator: Adobe Illustrator 24.3.0, SVG Export Plug-In . SVG Version: 6.00 Build 0)  -->
<svg version="1.1" id="Layer_1" xmlns="http://www.w3.org/2000/svg" xmlns:xlink="http://www.w3.org/1999/xlink" x="0px" y="0px"
	 viewBox="0 0 80 80" enable-background="new 0 0 80 80" xml:space="preserve">
<path fill="#18CEF6" d="M70.808,64.239c0,5.926-2.345,8.495-8.271,8.495l-39.791-0.447c-5.926,0-8.271-1.49-7.526-6.707l4.77-27.421
	c1.192-7.899,3.427-13.413,10.73-13.413h31.296c3.204,2.831,3.875,5.514,5.216,12.667L70.808,64.239z"/>
<path fill="#233251" d="M72.417,62.972l-5.663-33.39c-1.099-6.755-5.363-11.879-12.051-11.842h-2.3
	c-0.856-2.082-1.817-3.898-2.865-5.435c-2.672-3.921-6.023-6.14-9.578-6.163V6.143c-0.002,0-0.004,0.001-0.006,0.001
	c-0.001,0-0.003-0.001-0.005-0.001v0.001c-3.554,0.022-6.906,2.241-9.578,6.163c-1.049,1.536-2.008,3.352-2.865,5.435h-2.3
	c-6.689-0.037-10.952,5.087-12.052,11.842L7.49,62.972c-0.246,1.363-0.374,2.561-0.374,3.624c-0.034,2.424,0.767,4.379,2.415,5.412
	c1.615,1.011,3.559,1.158,5.838,1.172h49.17c2.281-0.014,4.225-0.161,5.838-1.172c1.648-1.033,2.45-2.988,2.416-5.412
	C72.791,65.533,72.663,64.335,72.417,62.972z M32.582,13.82c2.395-3.489,4.997-4.984,7.37-4.993
	c2.374,0.009,4.976,1.504,7.372,4.993c0.757,1.106,1.476,2.428,2.149,3.92H30.432C31.106,16.248,31.825,14.926,32.582,13.82z
	 M68.923,69.753c-0.739,0.505-2.25,0.759-4.385,0.745h-49.17c-2.134,0.015-3.646-0.24-4.386-0.745
	c-0.704-0.479-1.149-1.146-1.184-3.156c-0.002-0.847,0.105-1.898,0.332-3.164l5.667-33.396c1.135-6.056,4.244-9.575,9.407-9.614
	h1.316c-0.896,2.691-1.933,7.789-2.193,9.178c-0.389,2.075,2.107,2.782,2.649,0.423c0.354-1.544,0-0.002,0-0.002
	c0.585-3.684,1.399-6.883,2.367-9.6h21.219c0.969,2.716,2.127,8.208,2.368,9.601c0.329,1.913,2.844,1.321,2.648-0.423
	c-0.196-1.744-1.297-6.487-2.193-9.178h1.316c5.163,0.039,8.271,3.558,9.406,9.614l5.667,33.396
	c0.228,1.266,0.335,2.316,0.332,3.164C70.074,68.607,69.627,69.274,68.923,69.753z"/>
</svg>
